Coordinates
nRows=4
nColumns=38

# SIMM Motion File Header:
name Coordinates
datacolumns 38
datarows 4
otherdata 1
range 1.14237000000000010000 1.14537000000000000000

Units are S.I. units (second, meters, Newtons, ...)
Angles are in degrees.

endheader
time	pelvis_tilt	pelvis_list	pelvis_rotation	pelvis_tx	pelvis_ty	pelvis_tz	hip_flexion_r	hip_adduction_r	hip_rotation_r	knee_angle_r	ankle_angle_r	subtalar_angle_r	mtp_angle_r	hip_flexion_l	hip_adduction_l	hip_rotation_l	knee_angle_l	ankle_angle_l	subtalar_angle_l	mtp_angle_l	lumbar_extension	lumbar_bending	lumbar_rotation	arm_flex_r	arm_add_r	arm_rot_r	elbow_flex_r	pro_sup_r	wrist_flex_r	wrist_dev_r	arm_flex_l	arm_add_l	arm_rot_l	elbow_flex_l	pro_sup_l	wrist_flex_l	wrist_dev_l
      1.14237000000000010000	      0.31832570827093509000	     -6.43637772383662730000	     -3.25331478182035250000	      0.89314249005330915000	      1.03531877108298790000	     -0.30869020210041681000	     12.04626752420816000000	     11.69703543435141300000	      1.78284620352046130000	    -41.79688073448603800000	     29.92500949819316600000	     -0.00000000000000503670	      0.00000000000001301157	     24.43718564562338000000	     -5.05319218546442260000	      3.24832384645737230000	    -86.51291004768019400000	      9.89013606820541290000	     -0.00000000000000664766	      0.00000000000001035836	    -19.72524878930119400000	      9.22537584381410800000	     10.31980827476985900000	     -0.87781967930651350000	    -32.33387339199673200000	     -4.37750188977471930000	    100.08363918938983000000	    111.35603128498531000000	     -0.00000000000000575240	     -0.00000000000000033602	    -16.93920826539765700000	    -16.50714494698969000000	     14.94170744100242000000	     95.37439352978667300000	    100.19490893056742000000	      0.00000000000000063865	     -0.00000000000000369354
      1.14337000000000000000	      0.28977072021238959000	     -6.39615854501944090000	     -3.25097437995321230000	      0.89309787377195615000	      1.03567022720750200000	     -0.30864530939694623000	     11.85618919646924300000	     11.65724632216744700000	      1.82657374619490740000	    -41.61616200760568800000	     29.87486440900595900000	     -0.00000000000000523674	      0.00000000000001312799	     24.60083341376280300000	     -5.01600858974556640000	      3.25969261230268880000	    -86.37224518200366700000	      9.95124767188252510000	     -0.00000000000000678668	      0.00000000000001043180	    -19.67915582006647300000	      9.17439269054355750000	     10.40103549552256500000	     -0.83094423920667360000	    -32.35489734888673000000	     -4.40670042388833140000	    100.31203856644987000000	    111.21892499118712000000	     -0.00000000000000577912	     -0.00000000000000030669	    -17.06647783458106800000	    -16.56461787151797800000	     14.92147590116713500000	     95.52586323210717000000	    100.24437922285891000000	      0.00000000000000066608	     -0.00000000000000376037
      1.14437000000000010000	      0.26113278629761727000	     -6.35484304717437710000	     -3.24874904199895110000	      0.89305706396614726000	      1.03602904008854830000	     -0.30860004063970764000	     11.66480671299682600000	     11.61643342885320300000	      1.87122037922180380000	    -41.43258330012445600000	     29.82206708149357200000	     -0.00000000000000542235	      0.00000000000001329328	     24.76254200903742100000	     -4.97814260635693450000	      3.26931358092221420000	    -86.22656844160711400000	     10.01156763760845800000	     -0.00000000000000692215	      0.00000000000001050763	    -19.63248381800524500000	      9.12198054540178480000	     10.48217876819978200000	     -0.78699867368700804000	    -32.37479413318630600000	     -4.43764947972734620000	    100.54173439050950000000	    111.08580879921972000000	     -0.00000000000000580611	     -0.00000000000000027102	    -17.19398139905712200000	    -16.62247403913528000000	     14.90093720110011700000	     95.67758803436122200000	    100.29675707484209000000	      0.00000000000000067888	     -0.00000000000000382636
      1.14537000000000000000	      0.23244318458529203000	     -6.31242242579345800000	     -3.24662818190964990000	      0.89302000548409644000	      1.03639518782515180000	     -0.30855444027201895000	     11.47213752505840200000	     11.57457168834216300000	      1.91676139431286230000	    -41.24621413244122400000	     29.76659232838796900000	     -0.00000000000000559722	      0.00000000000001339434	     24.92227009226566300000	     -4.93957649260224850000	      3.27719518916286080000	    -86.07590176944862000000	     10.07109657414566500000	     -0.00000000000000705843	      0.00000000000001057611	    -19.58529123609930900000	      9.06813005936629320000	     10.56320456227105200000	     -0.74594686851527403000	    -32.39356464958993300000	     -4.47030250271439480000	    100.77270779668753000000	    110.95670997731035000000	     -0.00000000000000583289	     -0.00000000000000023783	    -17.32171603810934000000	    -16.68068679304627000000	     14.88007358975931500000	     95.82949779296893700000	    100.35179217077092000000	      0.00000000000000068338	     -0.00000000000000389168
